<svg width="80" height="80" viewBox="0 0 80 80" fill="none" xmlns="http://www.w3.org/2000/svg">
<circle cx="40" cy="40" r="40" fill="white"/>
<g clip-path="url(#clip0_1_1113)">
<path d="M61.25 62.5H60.25C55.3014 64.7794 50.0977 66.458 44.75 67.5H61.25C61.913 67.5 62.5489 67.2366 63.0178 66.7678C63.4866 66.2989 63.75 65.663 63.75 65C63.75 64.337 63.4866 63.7011 63.0178 63.2322C62.5489 62.7634 61.913 62.5 61.25 62.5Z" fill="#008BD0"/>
<path d="M18.75 26.25C26.0751 26.2139 33.3873 25.629 40.625 24.5C48.375 23.25 56.5 21 62.625 17.125C63.1696 16.7448 63.5499 16.1722 63.6891 15.5227C63.8283 14.8732 63.716 14.1951 63.375 13.625C63.1439 13.274 62.828 12.9869 62.4566 12.7903C62.0852 12.5937 61.6702 12.4938 61.25 12.5C60.7675 12.5076 60.2946 12.6366 59.875 12.875C50.25 19 32.25 21.25 18.75 21.25C18.2706 21.258 17.8036 21.4036 17.4047 21.6696C17.0058 21.9355 16.6917 22.3106 16.5 22.75C16.3445 23.061 16.2591 23.4024 16.25 23.75C16.25 24.4131 16.5134 25.049 16.9822 25.5178C17.4511 25.9866 18.087 26.25 18.75 26.25Z" fill="#008BD0"/>
<path d="M18.75 40C26.075 39.9597 33.3868 39.3748 40.625 38.25C48.375 37 56.5 34.75 62.5 30.875H62.625C63.0249 30.5163 63.3628 30.0939 63.625 29.625V29.375H63.75V28.75C63.75 28.625 63.75 28.5 63.625 28.5V28.25V28C63.2946 27.5712 62.8658 27.2283 62.375 27H61.25L58.5 26.75L56.25 25.75L49.25 25.25C43.5408 26.6535 37.7319 27.6146 31.875 28.125C31.8234 28.1592 31.7811 28.2056 31.7519 28.2602C31.7226 28.3147 31.7073 28.3756 31.7073 28.4375C31.7073 28.4994 31.7226 28.5603 31.7519 28.6148C31.7811 28.6694 31.8234 28.7158 31.875 28.75L44.5 29.875L48.375 30.125L51.625 30.375C41.875 33.75 29 35 18.75 35C18.2706 35.0079 17.8036 35.1536 17.4047 35.4195C17.0058 35.6855 16.6917 36.0605 16.5 36.5C16.3445 36.811 16.2591 37.1524 16.25 37.5C16.25 38.163 16.5134 38.7989 16.9822 39.2678C17.4511 39.7366 18.087 40 18.75 40Z" fill="#008BD0"/>
<path d="M18.75 53.75C26.075 53.7097 33.3868 53.1248 40.625 52C48.375 50.75 56.375 48.5 62.375 44.75C62.5 44.75 62.5 44.75 62.5 44.625H62.625C62.75 44.625 62.875 44.625 62.875 44.5L63.375 44C63.4091 43.813 63.4958 43.6395 63.625 43.5H63.75V42.875C63.75 42.75 63.75 42.625 63.625 42.625V42.375H63.5C63.5 42.25 63.375 42.25 63.375 42.125H63.125L62.875 41.875H62.625L62.125 41.625H61.75C61.75 41.5918 61.7368 41.5601 61.7134 41.5366C61.6899 41.5132 61.6581 41.5 61.625 41.5H61.25L58.5 41.25L56.25 39.5L49.25 39C43.5408 40.4035 37.7319 41.3646 31.875 41.875C31.8234 41.9092 31.7811 41.9556 31.7519 42.0102C31.7226 42.0647 31.7073 42.1256 31.7073 42.1875C31.7073 42.2494 31.7226 42.3103 31.7519 42.3648C31.7811 42.4194 31.8234 42.4658 31.875 42.5L44.5 43.625L48.375 43.875L51.625 44.125C41.875 47.5 29 48.75 18.75 48.75C18.2706 48.7579 17.8036 48.9036 17.4047 49.1695C17.0058 49.4355 16.6917 49.8105 16.5 50.25C16.3445 50.561 16.2591 50.9024 16.25 51.25C16.25 51.913 16.5134 52.5489 16.9822 53.0178C17.4511 53.4866 18.087 53.75 18.75 53.75Z" fill="#008BD0"/>
<path d="M62.375 58.5H62.625C62.75 58.5 62.875 58.5 62.875 58.375C62.875 58.25 63.25 58 63.375 57.875C63.375 57.75 63.375 57.75 63.5 57.625C63.625 57.5 63.5 57.5 63.625 57.375H63.75V56.75C63.75 56.625 63.75 56.5 63.625 56.5V56.25H63.5C63.5 56.125 63.375 56.125 63.375 56H63.125L62.875 55.75H62.625L62.125 55.5H61.75C61.75 55.4668 61.7368 55.4351 61.7134 55.4116C61.6899 55.3882 61.6581 55.375 61.625 55.375H61.25L58.5 55.125L56.25 53.25L49.25 52.75C43.5408 54.1535 37.7319 55.1146 31.875 55.625C31.8234 55.6592 31.7811 55.7056 31.7519 55.7602C31.7226 55.8147 31.7073 55.8756 31.7073 55.9375C31.7073 55.9994 31.7226 56.0603 31.7519 56.1148C31.7811 56.1694 31.8234 56.2158 31.875 56.25L44.5 57.375L48.375 57.625L51.625 57.875C41.875 61.25 29 62.5 18.75 62.5C18.087 62.5 17.4511 62.7634 16.9822 63.2322C16.5134 63.7011 16.25 64.337 16.25 65C16.25 65.663 16.5134 66.2989 16.9822 66.7678C17.4511 67.2366 18.087 67.5 18.75 67.5C24.25 67.5 40.625 67.125 53.75 62.5C56.7568 61.4715 59.6476 60.1309 62.375 58.5Z" fill="#008BD0"/>
</g>
<defs>
<clipPath id="clip0_1_1113">
<rect width="60" height="60" fill="white" transform="translate(10 10)"/>
</clipPath>
</defs>
</svg>
