<svg width="80" height="80" viewBox="0 0 80 80" fill="none" xmlns="http://www.w3.org/2000/svg">
<circle cx="40" cy="40" r="40" fill="white"/>
<path fill-rule="evenodd" clip-rule="evenodd" d="M49.2455 19.384C51.573 18.2472 54.1627 17.6104 56.3207 18.6538C57.471 19.21 58.2667 20.1416 58.7482 21.2506C59.1857 22.258 59.364 23.4041 59.3742 24.5894C59.383 25.5859 59.2732 26.6623 59.063 27.7945C58.7455 29.5061 58.1945 31.3667 57.4537 33.3068C57.3762 33.5098 57.2672 33.6917 57.1345 33.8488C57.5977 34.0051 58.0495 34.1659 58.4897 34.3309L58.4937 34.3325C58.6105 34.3763 58.7385 34.425 58.8532 34.4692C59.1867 34.598 59.513 34.7291 59.832 34.8626C60.6467 35.2037 61.413 35.56 62.1245 35.9297C62.856 36.3097 63.5387 36.7082 64.1637 37.1247C66.3192 38.561 68.1755 40.476 68.363 42.8655C68.463 44.1392 68.06 45.2962 67.3452 46.2715C66.696 47.1572 65.7965 47.8895 64.7782 48.4962C63.9222 49.0062 62.9372 49.4545 61.8537 49.8442C60.2155 50.4332 58.3312 50.8962 56.2825 51.2352C55.2607 51.4042 54.2955 50.7132 54.1265 49.6915C53.9572 48.6697 54.6485 47.7045 55.6702 47.5355C57.0747 47.303 58.3345 47.0167 59.4372 46.69L59.45 46.686C60.865 46.266 62.0042 45.784 62.8587 45.2747C63.5945 44.8365 64.0567 44.415 64.3207 44.0547C64.584 43.6955 64.6445 43.4122 64.6245 43.159C64.5782 42.569 64.007 41.5265 62.0842 40.2455C61.5877 39.9145 61.0242 39.584 60.3957 39.2575L57.155 37.8352C52.7727 36.195 46.903 34.9401 40.4412 34.4893C39.6392 34.4333 38.8487 34.3912 38.071 34.3623C37.03 35.678 36.0022 37.0737 35.0037 38.538C33.1445 41.2652 31.5825 43.9455 30.3401 46.461C31.1269 46.909 31.4938 47.8747 31.1649 48.7492C30.8079 49.6982 29.7639 50.188 28.8107 49.866C28.2452 51.2727 27.7994 52.5997 27.4784 53.8212C27.4446 53.9497 27.4124 54.0767 27.3816 54.202L27.376 54.2252C26.8871 56.2225 26.7796 57.7875 26.9513 58.8795C27.0179 59.3035 27.1177 59.6172 27.2328 59.851C27.4087 60.2072 27.6201 60.378 27.8015 60.4677L27.8113 60.4725C27.9194 60.5247 28.0528 60.569 28.2203 60.5962C28.5268 60.6465 28.947 60.6405 29.5002 60.5212C30.4996 60.306 31.767 59.758 33.2525 58.827C33.5956 58.612 33.9473 58.3785 34.3066 58.127C34.9057 57.7072 35.5242 57.2387 36.1577 56.7227L39.0962 54.335C39.9 53.682 41.0807 53.8042 41.7337 54.6077C42.3867 55.4115 42.2647 56.5925 41.461 57.2455L38.5252 59.631C37.8285 60.1982 37.1377 60.7222 36.4577 61.1985C36.0497 61.4842 35.6447 61.7535 35.2437 62.0047C33.5499 63.0662 31.8677 63.8472 30.2899 64.1872C29.399 64.379 28.4921 64.441 27.6134 64.297C27.1209 64.2162 26.6383 64.0707 26.1788 63.8485L26.138 63.8285C24.3143 62.9257 23.4743 61.1457 23.2195 59.2767C22.967 57.4245 23.2338 55.2187 23.8516 52.868C24.2029 51.5315 24.6788 50.1062 25.2715 48.6167L24.0046 48.1695C23.1633 47.854 22.3624 47.522 21.6082 47.1752C21.1556 46.967 20.7189 46.753 20.2996 46.5335C18.5288 45.6062 17.0058 44.5477 15.9165 43.357C15.3013 42.6845 14.7904 41.9327 14.4716 41.1012C14.2929 40.6352 14.1751 40.145 14.1352 39.6362L14.1318 39.591C13.9913 37.561 15.1046 35.9377 16.59 34.7749C18.062 33.6226 20.1011 32.7404 22.4424 32.0881C26.1613 31.052 30.9671 30.5078 36.3217 30.5689C38.8552 27.5318 41.4687 24.9116 43.9712 22.874L43.9745 22.8712C44.0712 22.7926 44.178 22.7065 44.274 22.6298C44.5532 22.4068 44.8312 22.1912 45.1072 21.9832C45.8127 21.4517 46.507 20.97 47.185 20.542C47.8822 20.1021 48.5707 19.7135 49.2455 19.384ZM41.1145 30.7782C45.6792 31.121 50.0247 31.8507 53.8402 32.8617C53.8047 32.5691 53.838 32.2638 53.9505 31.9693C54.4582 30.6392 54.8465 29.4071 55.1205 28.2899L55.1237 28.277C55.4747 26.8433 55.633 25.6165 55.6245 24.6219C55.617 23.7655 55.4862 23.1537 55.3085 22.744C55.1312 22.3356 54.917 22.1404 54.6882 22.0298C54.1555 21.7721 52.9672 21.7396 50.8912 22.7536C50.355 23.0154 49.7852 23.3353 49.1865 23.7133L46.3237 25.7942C44.6495 27.1589 42.8865 28.8386 41.1145 30.7782ZM33.3708 34.3496C29.5 34.4793 26.1067 34.9601 23.4488 35.7005C23.3208 35.7362 23.1949 35.7725 23.0711 35.809L23.0484 35.816C21.0771 36.4012 19.6717 37.0977 18.8153 37.7967C18.4829 38.0682 18.2622 38.3127 18.1185 38.53C17.8996 38.8615 17.8589 39.1302 17.8729 39.332L17.8737 39.343C17.8831 39.4627 17.9122 39.6002 17.973 39.7587C18.0842 40.0485 18.3015 40.4082 18.6834 40.8257C19.3735 41.5802 20.486 42.3982 22.0391 43.2112C22.3978 43.399 22.7768 43.585 23.1753 43.7682C23.8398 44.074 24.5565 44.3715 25.3214 44.6582L26.7931 45.1777C28.1578 42.364 29.877 39.401 31.9053 36.4257C32.3864 35.72 32.8754 35.0275 33.3708 34.3496Z" fill="#008BD0"/>
<path d="M39.4117 45.7032C39.3772 43.4272 39.3602 42.2892 40.0777 41.875C40.7952 41.4607 41.7722 42.0445 43.7262 43.2122L44.2317 43.5145C44.787 43.8462 45.0645 44.012 45.3702 44.0507C45.6762 44.0895 45.9755 43.9965 46.5745 43.8105L47.1197 43.6412C49.227 42.9867 50.2807 42.6595 50.914 43.2445C51.5475 43.8295 51.341 44.9392 50.9282 47.1587L50.8215 47.733C50.7042 48.3637 50.6455 48.679 50.715 48.9872C50.7847 49.2952 50.9745 49.5612 51.3545 50.093L51.7002 50.5772C53.037 52.4487 53.7052 53.3845 53.3792 54.1602C53.0532 54.9362 51.9485 55.0382 49.7395 55.2422L49.168 55.295C48.5402 55.353 48.2265 55.382 47.9635 55.5337C47.7007 55.6855 47.5187 55.9427 47.1547 56.4575L46.8232 56.926C45.542 58.737 44.9012 59.6427 44.0665 59.537C43.2315 59.4315 42.7552 58.385 41.8027 56.2915L41.5565 55.75C41.2857 55.155 41.1505 54.8575 40.9185 54.6432C40.6862 54.429 40.384 54.322 39.779 54.1082L39.2285 53.9137C37.0997 53.1615 36.0355 52.7852 35.8457 51.9442C35.6557 51.1032 36.466 50.3545 38.0862 48.8565L38.5055 48.469C38.966 48.0435 39.1962 47.8305 39.3157 47.5465C39.435 47.2622 39.4302 46.9387 39.4205 46.292L39.4117 45.7032Z" fill="#008BD0"/>
</svg>
