<svg width="40" height="40" viewBox="0 0 40 40" fill="none" xmlns="http://www.w3.org/2000/svg">
<g clip-path="url(#clip0_1_363)">
<path d="M34 0H6C2.68629 0 0 2.68629 0 6V34C0 37.3137 2.68629 40 6 40H34C37.3137 40 40 37.3137 40 34V6C40 2.68629 37.3137 0 34 0Z" fill="#008BD0"/>
<path d="M21.4062 28.3592C21.7969 28.2811 22.5 28.1249 22.5 27.1874C22.5 27.1874 22.4219 24.8436 23.5156 24.5311C24.6094 24.2186 26.0156 26.7967 27.5 27.8124C28.5937 28.5155 29.4531 28.4374 29.4531 28.4374L33.4375 28.3592C33.4375 28.3592 35.4687 28.203 34.5312 26.5624C34.4531 26.4061 33.8281 25.3905 31.4844 23.2811C29.0625 20.9374 29.4531 21.328 32.3437 17.3436C34.1406 14.9217 34.9219 13.4374 34.6875 12.8905C34.375 12.3436 33.125 12.4217 33.125 12.4217H28.6719C28.2031 12.4217 27.9687 12.4999 27.7344 12.8905C27.7344 12.8905 27.0312 14.8436 26.0937 16.4061C24.1406 19.7655 23.3594 19.9217 22.9687 19.6874C22.2656 19.2967 22.4219 17.8124 22.4219 16.7967C22.4219 13.2811 22.9687 12.0311 21.4062 11.7186C20.3906 11.5624 16.7969 11.4061 15.7031 11.953C15.1562 12.2655 14.8437 12.8124 15.0781 12.8905C15.3125 12.8905 16.0156 12.9686 16.4062 13.4374C17.0312 14.453 17.1094 19.2967 16.25 19.7655C15.0781 20.6249 12.1094 14.9217 11.4062 13.0467C11.25 12.578 11.0156 12.4999 10.4687 12.3436H6.17186C5.70311 12.3436 4.99999 12.4217 5.31249 13.3592C7.42186 17.7342 11.7969 28.4374 19.6875 28.3592H21.4062Z" fill="white"/>
</g>
<defs>
<clipPath id="clip0_1_363">
<rect width="40" height="40" fill="white"/>
</clipPath>
</defs>
</svg>
