<svg width="70" height="90" viewBox="0 0 70 90" fill="none" xmlns="http://www.w3.org/2000/svg">
<path fill-rule="evenodd" clip-rule="evenodd" d="M58.3756 23.8503C58.4159 24.3945 58.4361 24.9403 58.4361 25.4862C58.4361 29.9017 57.1415 34.0529 54.8401 37.5887L58.4258 36.6603C60.7242 36.0651 63.1342 36.4791 65.1528 37.7836C67.1712 39.0879 68.6255 41.1707 69.1855 43.6125L69.5803 45.3337C70.1403 47.7755 69.7508 50.3358 68.5234 52.4804C67.2959 54.6252 65.3354 56.1709 63.0369 56.766L62.1381 56.9986L62.1567 57.0664L60.5765 57.4756C62.084 58.1814 63.4347 59.1995 64.5598 60.4807C68.9247 65.45 69.0142 73 66.3324 78.8842C63.354 85.4193 56.7309 90.4608 49.6875 89.3384C48.651 89.1732 47.6364 88.8714 46.6713 88.437C45.0987 87.7291 43.6917 86.6846 42.5265 85.3578C42.3755 85.1859 42.2286 85.0099 42.0862 84.8299C39.7374 85.4448 37.3204 85.7491 34.9017 85.7491C32.8545 85.7491 30.8083 85.5306 28.8032 85.091L28.6539 85.0581C28.5701 85.1594 28.4848 85.2594 28.3983 85.3578C27.2331 86.6846 25.826 87.7291 24.2535 88.437C23.2883 88.8714 22.2738 89.1732 21.2373 89.3384C14.194 90.4608 7.57085 85.4193 4.59235 78.8842C1.91055 73 2.00025 65.45 6.36485 60.4807C7.21995 59.5071 8.20715 58.683 9.29705 58.0333L9.36555 57.7494L7.79395 57.3425C5.49555 56.7474 3.53495 55.2017 2.30755 53.0569C1.08015 50.9123 0.690648 48.352 1.25065 45.9102L1.64535 44.189C2.20545 41.747 3.66005 39.664 5.67865 38.3598C7.69715 37.0556 10.1068 36.6417 12.4051 37.2368L15.0537 37.9225C12.6166 34.3193 11.2363 30.0458 11.2363 25.4862C11.2363 24.856 11.2632 24.226 11.3169 23.5984C7.98615 21.252 5.95715 17.2707 5.95715 12.9879C5.95715 5.96053 11.3226 0.259565 17.9367 0.259565C21.1995 0.259565 24.3029 1.67023 26.5507 4.14161C29.2147 3.17813 32.02 2.69802 34.8361 2.69802C37.7581 2.69802 40.6676 3.21522 43.4193 4.25211C45.6732 1.70881 48.824 0.25 52.1417 0.25C58.7558 0.25 64.1213 5.95086 64.1213 12.9783C64.1213 17.437 61.9222 21.5541 58.3756 23.8503Z" fill="white" stroke="#008BD0" stroke-width="0.216"/>
<path fill-rule="evenodd" clip-rule="evenodd" d="M52.6089 39.5492L52.5903 39.4814L58.7095 37.897C62.8152 36.8339 67.0213 39.5516 68.0217 43.9139L68.4165 45.6351C69.417 49.9974 66.8591 54.4664 62.7534 55.5294L60.6384 56.077L60.6569 56.1448L58.9129 56.5964C58.9526 56.7403 58.9908 56.8847 59.0275 57.0296L59.3559 58.3281C59.5552 58.4038 59.7526 58.4857 59.9478 58.5736C61.3671 59.2123 62.6325 60.1518 63.6841 61.3491C67.7181 65.942 67.7233 72.9124 65.2543 78.3295C62.5072 84.3571 56.3826 89.1183 49.8652 88.0797C48.9277 87.9303 48.0117 87.658 47.1387 87.265C45.7195 86.6262 44.454 85.6868 43.4024 84.4895C43.0941 84.1385 42.8093 83.7735 42.5473 83.3964L41.8673 83.5763C39.5905 84.1787 37.2477 84.4763 34.9018 84.4763C32.9355 84.4763 30.9712 84.2667 29.0454 83.8444L28.1914 83.6572C27.9821 83.9422 27.7592 84.22 27.5225 84.4895C26.4709 85.6868 25.2055 86.6262 23.7863 87.265C22.9132 87.658 21.9972 87.9303 21.0597 88.0797C14.5423 89.1183 8.41767 84.3571 5.67057 78.3295C3.20167 72.9124 3.20677 65.942 7.24077 61.3491C8.12877 60.3381 9.16927 59.5108 10.3263 58.8933L10.7223 57.2528C10.7573 57.1077 10.7938 56.9631 10.832 56.8191L8.07757 56.1059C3.97187 55.0429 1.41407 50.5739 2.41457 46.2116L2.80926 44.4905C3.80966 40.1281 8.01587 37.4105 12.1215 38.4735L18.3933 40.0973C14.7354 36.3052 12.4343 31.2042 12.4343 25.4863C12.4343 24.6333 12.4869 23.7823 12.591 22.9383C9.28076 20.9299 7.15517 17.1577 7.15517 12.988C7.15517 6.66313 11.984 1.53251 17.9368 1.53251C21.1687 1.53251 24.1764 3.06463 26.1992 5.62791C28.9526 4.5227 31.8839 3.97084 34.8362 3.97084C37.8977 3.97084 40.9356 4.56478 43.7748 5.75223C45.7953 3.11192 48.8505 1.52295 52.1417 1.52295C58.0946 1.52295 62.9233 6.65346 62.9233 12.9784C62.9233 17.3146 60.6252 21.2108 57.1067 23.1497C57.1942 23.9244 57.2382 24.7046 57.2382 25.4863C57.2382 31.0694 55.0443 36.0644 51.5355 39.8271L52.6089 39.5492Z" fill="#008BD0"/>
<path fill-rule="evenodd" clip-rule="evenodd" d="M34.8361 6.51918C38.4052 6.51918 41.7555 7.40656 44.6568 8.96025C46.04 6.05974 48.8726 4.07129 52.1416 4.07129C56.7721 4.07129 60.5273 8.06117 60.5273 12.9811C60.5273 17.0652 57.9392 20.508 54.4112 21.56C54.6929 22.8278 54.8422 24.1418 54.8422 25.489C54.8422 33.1772 50.0157 39.7985 43.0799 42.7775C45.0235 40.8253 46.2168 38.1838 46.2168 35.2763C46.2168 29.2676 41.1206 24.3947 34.8362 24.3947C28.5518 24.3947 23.4556 29.2676 23.4556 35.2763C23.4556 38.1839 24.649 40.8253 26.5926 42.7775C19.6567 39.7986 14.8301 33.1774 14.8301 25.489C14.8301 24.1013 14.9889 22.7487 15.2874 21.4458C11.9549 20.2672 9.55103 16.9268 9.55103 12.9906C9.55103 8.07063 13.3062 4.08085 17.9367 4.08085C21.1385 4.08085 23.9215 5.98867 25.3343 8.79229C28.1612 7.34251 31.3973 6.51918 34.8361 6.51918ZM19.1334 9.79944C20.2059 9.79944 21.1711 10.2876 21.843 11.0664C19.8537 12.6793 18.202 14.6551 17.0022 16.8862C16.0676 16.178 15.4579 15.017 15.4579 13.7046C15.4579 11.5481 17.1037 9.79944 19.1334 9.79944ZM50.7903 10.0001C52.8201 10.0001 54.4658 11.7488 54.4658 13.9053C54.4658 15.2665 53.8099 16.465 52.8158 17.1639C51.6543 14.9133 50.0367 12.9133 48.0772 11.2711C48.7493 10.4901 49.716 10.0001 50.7903 10.0001Z" fill="white"/>
<path fill-rule="evenodd" clip-rule="evenodd" d="M35.1124 27.3916C35.8003 27.3916 36.46 27.6413 36.9465 28.0856C37.4329 28.5299 37.7062 29.1324 37.7062 29.7608C37.7062 30.2293 37.554 30.6874 37.269 31.077C36.984 31.4666 36.5789 31.7703 36.1049 31.9496C35.6309 32.1289 35.1094 32.1758 34.6062 32.0844C34.103 31.993 33.6408 31.7673 33.2781 31.436C32.9153 31.1047 32.6683 30.6825 32.5682 30.2229C32.4681 29.7633 32.5195 29.287 32.7158 28.8541C32.9122 28.4212 33.2447 28.0511 33.6713 27.7908C34.0978 27.5305 34.5993 27.3916 35.1124 27.3916Z" fill="white"/>
<path fill-rule="evenodd" clip-rule="evenodd" d="M59.0132 60.9204C53.7372 58.5456 47.0089 61.9942 43.9885 68.6214C40.968 75.2487 42.7972 82.549 48.0732 84.9239C53.3492 87.2987 60.0775 83.85 63.098 77.2228C66.1184 70.5955 64.2893 63.2951 59.0132 60.9204ZM56.1493 67.5779C52.6216 65.9901 48.123 68.296 46.1035 72.7271C44.0838 77.1584 45.3068 82.0394 48.8345 83.6274C52.3622 85.2152 56.861 82.9095 58.8806 78.4782C60.9002 74.0471 59.677 69.1659 56.1493 67.5779Z" fill="white"/>
<path fill-rule="evenodd" clip-rule="evenodd" d="M11.9116 60.9204C17.1876 58.5456 23.9158 61.9942 26.9362 68.6214C29.9567 75.2487 28.1276 82.549 22.8516 84.9239C17.5755 87.2987 10.8473 83.85 7.82693 77.2228C4.80643 70.5955 6.63563 63.2951 11.9116 60.9204ZM15.0557 67.5779C18.5835 65.9901 23.0821 68.296 25.1017 72.7271C27.1212 77.1583 25.8982 82.0395 22.3705 83.6274C18.8428 85.2153 14.3441 82.9094 12.3246 78.4782C10.305 74.0471 11.528 69.1658 15.0557 67.5779Z" fill="white"/>
<path fill-rule="evenodd" clip-rule="evenodd" d="M54.2194 41.7552L48.6577 43.1951C44.8096 45.986 40.0233 47.641 34.8362 47.641C29.8517 47.641 25.2376 46.1127 21.4701 43.5169L11.5542 40.9496C8.71633 40.2148 5.82863 42.0807 5.13703 45.0959L4.74233 46.8171C4.05073 49.8325 5.80683 52.9006 8.64483 53.6355L13.9956 55.0208C13.6004 55.9456 13.2807 56.9032 13.043 57.888C13.2617 57.839 13.4818 57.7971 13.7032 57.7618C17.7525 57.1163 21.6501 58.7101 24.6803 61.4551C26.248 56.9732 30.4565 53.763 35.4015 53.763C40.3776 53.763 44.608 57.0134 46.1522 61.5394C49.0692 58.8587 52.8062 57.248 56.7136 57.693C56.4625 56.7007 56.1278 55.7365 55.7164 54.8066L57.6565 54.3043L57.3968 53.3559L56.5786 53.5872C55.9435 53.7667 55.2819 53.3591 55.113 52.6843C54.9441 52.0095 55.3277 51.3064 55.9628 51.1271L56.7272 50.9111L56.3474 49.5245L55.6228 49.7294C54.9877 49.9087 54.3262 49.5013 54.1572 48.8265C53.9883 48.1516 54.3719 47.4487 55.007 47.2693L55.6778 47.0797L55.3076 45.7283L54.7351 45.8901C54.1001 46.0697 53.4384 45.6623 53.2692 44.9876C53.1003 44.3127 53.4837 43.6095 54.119 43.43L54.6379 43.2834L54.2194 41.7552ZM40.1551 75.8428C38.7085 76.5204 37.0984 76.8991 35.4015 76.8991C33.7512 76.8991 32.1833 76.5412 30.7677 75.898C30.6904 77.7896 30.2939 79.6493 29.5296 81.3542C31.2508 81.7316 33.0496 81.9333 34.9017 81.9333C37.121 81.9333 39.2644 81.6443 41.2883 81.1088C40.5869 79.4548 40.2235 77.6632 40.1551 75.8428Z" fill="white"/>
<path fill-rule="evenodd" clip-rule="evenodd" d="M66.0887 46.2404L65.6939 44.5193C65.0024 41.504 62.1146 39.6381 59.2767 40.373L55.5905 41.3273L56.0192 42.8929L57.0132 42.612C57.6482 42.4323 58.3099 42.8399 58.4791 43.5147C58.6479 44.1895 58.2645 44.8925 57.6293 45.0721L56.6889 45.3378L57.0591 46.6891L57.9014 46.4511C58.5365 46.2717 59.1981 46.6791 59.367 47.354C59.5359 48.0288 59.1523 48.7318 58.5172 48.9112L57.7288 49.134L58.1085 50.5206L58.8572 50.3089C59.4923 50.1296 60.1539 50.5369 60.3228 51.2117C60.4917 51.8866 60.1081 52.5896 59.473 52.769L58.7782 52.9654L59.0276 53.8765L62.1861 53.0587C65.0241 52.324 66.7802 49.2558 66.0887 46.2404Z" fill="white"/>
<path fill-rule="evenodd" clip-rule="evenodd" d="M35.0392 40.6756C32.5356 40.6756 30.3331 39.3072 29.0621 37.2382C28.6291 36.4444 29.4609 36.8067 29.8182 37.2392C31.1064 38.7565 32.9669 39.7176 35.0392 39.7414C37.1116 39.7176 38.9721 38.7565 40.2603 37.2392C40.6175 36.8066 41.4493 36.4443 41.0164 37.2382C39.7454 39.3072 37.5428 40.6756 35.0392 40.6756Z" fill="white"/>
<path fill-rule="evenodd" clip-rule="evenodd" d="M59.3191 52.1541C59.6373 52.0642 59.8285 51.7137 59.7438 51.3755C59.6592 51.0374 59.3294 50.8342 59.0111 50.9241L56.1167 51.7422C55.7985 51.8321 55.6072 52.1826 55.6919 52.5208C55.7765 52.8588 56.1064 53.0621 56.4247 52.9721L59.3191 52.1541Z" fill="white"/>
<path fill-rule="evenodd" clip-rule="evenodd" d="M58.3632 48.2962C58.6814 48.2063 58.8727 47.8558 58.788 47.5176C58.7034 47.1795 58.3735 46.9763 58.0552 47.0662L55.1609 47.8842C54.8427 47.9742 54.6514 48.3247 54.7361 48.6628C54.8207 49.0009 55.1506 49.2041 55.4689 49.1142L58.3632 48.2962Z" fill="white"/>
<path fill-rule="evenodd" clip-rule="evenodd" d="M57.4754 44.4575C57.7938 44.3675 57.9849 44.0168 57.9003 43.6786C57.8155 43.3407 57.4856 43.1374 57.1673 43.2274L54.2729 44.0453C53.9544 44.1353 53.7635 44.4859 53.8481 44.8242C53.9329 45.1622 54.2628 45.3655 54.5811 45.2754L57.4754 44.4575Z" fill="white"/>
<path fill-rule="evenodd" clip-rule="evenodd" d="M44.5185 13.7308C47.3853 14.5675 48.033 17.9638 47.3757 20.58C46.6338 23.7683 45.1509 26.0193 41.5325 25.1121C38.8088 24.3619 37.5634 21.9497 38.4991 18.1184C39.3358 15.2268 41.6517 12.8942 44.5185 13.7308ZM42.2185 21.6756C42.9948 21.8763 43.4686 22.7192 43.2765 23.5579C43.1604 24.0651 42.8274 24.4544 42.4108 24.639C43.5555 24.6207 44.6143 23.7035 44.9215 22.3619C45.2805 20.7942 44.4773 19.2398 43.1278 18.891C41.7785 18.5422 40.393 19.5307 40.034 21.0986C39.8253 22.0103 40.0097 22.9173 40.4658 23.5855C40.4099 23.346 40.406 23.0884 40.4649 22.8312C40.6569 21.9925 41.4422 21.475 42.2185 21.6756Z" fill="#008BD0"/>
<path fill-rule="evenodd" clip-rule="evenodd" d="M41.7656 22.0845C41.8438 22.1048 41.9174 22.1419 41.982 22.1939C42.0467 22.246 42.1012 22.3118 42.1424 22.3877C42.1837 22.4636 42.2108 22.548 42.2223 22.6362C42.2339 22.7244 42.2295 22.8146 42.2096 22.9017C42.1795 23.0329 42.1152 23.152 42.0248 23.2441C41.9343 23.3362 41.8218 23.3972 41.7015 23.4192C41.5811 23.4413 41.4583 23.4234 41.3486 23.368C41.2389 23.3125 41.1472 23.2219 41.0851 23.1076C41.023 22.9933 40.9933 22.8605 40.9998 22.7259C41.0062 22.5914 41.0486 22.4611 41.1214 22.3516C41.1942 22.2421 41.2943 22.1583 41.409 22.1107C41.5236 22.0632 41.6477 22.0541 41.7656 22.0845Z" fill="#008BD0"/>
<path fill-rule="evenodd" clip-rule="evenodd" d="M25.0767 14.1478C22.2099 14.9844 21.5621 18.3807 22.2195 20.9969C22.9613 24.1854 24.4442 26.4363 28.0626 25.5291C30.7863 24.7789 32.0317 22.3667 31.0961 18.5353C30.2593 15.6437 27.9435 13.3111 25.0767 14.1478ZM27.3766 22.0927C26.6004 22.2933 26.1266 23.1362 26.3186 23.975C26.4347 24.482 26.7677 24.8714 27.1844 25.056C26.0397 25.0376 24.9809 24.1206 24.6737 22.7789C24.3147 21.2111 25.1179 19.6568 26.4674 19.3079C27.8167 18.9591 29.2021 19.9477 29.5611 21.5155C29.7699 22.4272 29.5855 23.3342 29.1294 24.0024C29.1853 23.763 29.1892 23.5055 29.1303 23.2481C28.9382 22.4094 28.1529 21.892 27.3766 22.0927Z" fill="#008BD0"/>
<path fill-rule="evenodd" clip-rule="evenodd" d="M27.8295 22.5015C27.6715 22.5424 27.536 22.6514 27.4527 22.8046C27.3695 22.9578 27.3453 23.1427 27.3855 23.3186C27.4156 23.4497 27.4799 23.5689 27.5703 23.6611C27.6607 23.7532 27.7732 23.8141 27.8936 23.8362C28.014 23.8582 28.1368 23.8404 28.2465 23.785C28.3562 23.7295 28.4479 23.6389 28.51 23.5246C28.5721 23.4104 28.6018 23.2775 28.5954 23.143C28.5889 23.0084 28.5466 22.8781 28.4738 22.7686C28.4009 22.6591 28.3008 22.5752 28.1862 22.5277C28.0715 22.4802 27.9474 22.4711 27.8295 22.5015Z" fill="#008BD0"/>
</svg>
