<svg width="75" height="84" viewBox="0 0 75 84" fill="none" xmlns="http://www.w3.org/2000/svg">
<path d="M74.0842 48.4042C74.0843 48.6295 74.0588 48.8541 74.0084 49.0737C74.0589 49.8274 74.0842 50.6063 74.0842 51.4105C74.0842 71.8674 37.0421 83.3874 37.0421 83.3874C37.0421 83.3874 0 71.8674 0 51.4042C0 50.6042 0.0252633 49.8253 0.0757896 49.0674C0.0258331 48.8498 0.00041115 48.6274 0 48.4042V3C0.00166871 2.20486 0.318275 1.44277 0.880523 0.880523C1.44277 0.318276 2.20486 0.00166871 3 0H71.0842C71.8793 0.00166871 72.6414 0.318276 73.2037 0.880523C73.7659 1.44277 74.0825 2.20486 74.0842 3V48.4042ZM59.6147 32.2737C59.6131 31.4785 59.2965 30.7165 58.7342 30.1542C58.172 29.592 57.4099 29.2754 56.6147 29.2737H44.6779V17.3368C44.6746 16.5439 44.3581 15.7844 43.7974 15.2237C43.2367 14.663 42.4772 14.3465 41.6842 14.3432H32.4C31.6049 14.3448 30.8428 14.6614 30.2805 15.2237C29.7183 15.7859 29.4017 16.548 29.4 17.3432V29.2737H17.4695C16.6743 29.2754 15.9122 29.592 15.35 30.1542C14.7877 30.7165 14.4711 31.4785 14.4695 32.2737V41.5579C14.4728 42.3519 14.7901 43.1124 15.3522 43.6733C15.9143 44.2342 16.6754 44.5499 17.4695 44.5516H29.4063V56.4821C29.408 57.2761 29.7237 58.0373 30.2846 58.5994C30.8455 59.1614 31.606 59.4788 32.4 59.4821H41.6842C42.4793 59.4804 43.2414 59.1638 43.8037 58.6016C44.3659 58.0393 44.6825 57.2772 44.6842 56.4821V44.5516H56.6147C57.4099 44.5499 58.172 44.2333 58.7342 43.6711C59.2965 43.1088 59.6131 42.3467 59.6147 41.5516V32.2737Z" fill="white"/>
</svg>
