<svg width="90" height="90" viewBox="0 0 90 90" fill="none" xmlns="http://www.w3.org/2000/svg">
<path d="M30.3985 68.4254C19.8682 60.3123 7.5 50.7832 7.5 34.2641C7.5 16.028 28.1256 3.09543 45 20.6273L52.5 28.1222C53.5984 29.2204 55.3792 29.2201 56.4776 28.1215C57.5756 27.023 57.5752 25.2422 56.4769 24.1441L49.2319 16.9016C65.1319 5.26153 82.5 17.5299 82.5 34.2641C82.5 50.7832 70.1317 60.3123 59.6014 68.4254C58.5071 69.2688 57.4324 70.0968 56.3936 70.9158C52.5 73.9852 48.75 76.8749 45 76.8749C41.25 76.8749 37.5 73.9852 33.6065 70.9158C32.5677 70.0968 31.493 69.2688 30.3985 68.4254Z" fill="white"/>
</svg>
