<svg width="60" height="60" viewBox="0 0 60 60" fill="none" xmlns="http://www.w3.org/2000/svg">
<mask id="mask0_1_179" style="mask-type:luminance" maskUnits="userSpaceOnUse" x="1" y="0" width="57" height="60">
<path d="M57.8754 0.361816H1.96506V59.6751H57.8754V0.361816Z" fill="white"/>
</mask>
<g mask="url(#mask0_1_179)">
<path d="M28.1786 12.3845V8.80239C26.9875 8.29191 25.892 7.57265 25.4561 6.18195C25.202 5.2948 25.2515 4.34813 25.597 3.49237C26.2475 1.65827 28.5882 0.28726 30.7174 0.48416C32.4338 0.642897 33.6053 1.77647 33.8506 3.51552C34.2774 6.54076 33.4928 7.99317 30.7726 9.05184C30.7286 9.77062 30.6817 10.5395 30.6199 11.5471C31.3473 10.9967 31.8884 10.5672 32.4504 10.1668C33.2428 9.56217 34.0657 8.99839 34.9156 8.47765C37.6624 6.91895 40.3207 7.21699 42.893 8.95069C44.0633 9.7395 45.2493 10.5079 46.4541 11.2428C48.6252 12.569 51.0581 13.4093 53.5848 13.7057C54.2433 13.7918 54.8948 13.9286 55.5322 14.1151C57.8304 14.7665 58.4081 16.8277 56.7022 18.4744C54.3389 20.7555 51.4133 21.9204 48.1952 22.2342C44.9152 22.5312 41.6089 22.2979 38.4029 21.5431C36.174 21.0382 33.9318 20.5927 31.6937 20.1301C31.2546 20.0392 30.8069 19.991 30.3093 19.9149V31.024C32.0063 30.3725 33.5253 29.8428 34.5837 28.5484C34.9632 28.0588 35.2311 27.4922 35.3684 26.8881C35.6093 25.8858 35.3225 25.5708 34.4172 25.046C33.6707 24.6046 32.9767 24.0797 32.3488 23.4812C32.1123 23.2698 31.9538 22.9849 31.8986 22.6725C31.8437 22.36 31.8952 22.0381 32.0452 21.7585C32.1614 21.4627 32.3784 21.2175 32.6582 21.0666C32.938 20.9157 33.2621 20.8689 33.5732 20.9345C34.283 21.0738 35.0952 21.2575 35.6151 21.7077C39.4785 25.0542 38.8013 29.4702 35.5277 31.9614C34.8713 32.4616 34.1486 32.8778 33.3586 33.397C33.7305 33.521 34.0293 33.6238 34.3309 33.7203C35.8118 34.1552 37.1865 34.8918 38.3686 35.8838C40.3356 37.6043 40.5441 39.8021 38.9244 41.8458C37.4901 43.6561 35.5724 44.8013 33.4643 45.6572C32.8607 45.9021 32.2438 46.1139 31.4732 46.4002C32.0289 46.7972 32.4699 47.0791 32.8734 47.4072C34.3839 48.6347 35.3286 50.1091 34.8696 52.1661C34.7478 52.7154 34.5096 53.2321 34.171 53.6813C33.8326 54.1306 33.4016 54.5024 32.9074 54.7709C32.3537 55.1009 31.8539 55.5209 31.2471 55.9598C31.9749 56.2932 32.5598 56.5069 33.089 56.8191C33.5611 57.0984 33.9981 57.5039 33.7397 58.1413C33.4888 58.7606 32.9208 58.8406 32.3709 58.6691C31.4284 58.3746 30.5101 58.0047 29.5224 57.6454C29.2108 58.4298 29.2375 59.5884 28.1407 59.5865C27.6334 59.5865 27.1273 58.9258 26.4911 58.4724C26.1686 58.5884 25.6389 58.8139 25.089 58.9669C24.6337 59.0935 24.1261 59.0924 23.9049 58.5795C23.6883 58.0769 24.0121 57.6884 24.4047 57.4209C24.9816 57.028 25.5915 56.6835 26.0499 56.4028C24.9235 55.7646 23.7375 55.1732 22.6358 54.4524C19.7917 52.5924 20.1934 49.5746 21.8029 47.6506C22.0421 47.3647 22.3066 47.0998 22.6588 46.7176C20.2036 45.3369 18.0818 43.6621 18.0473 40.5821C18.014 37.5943 19.6688 35.533 22.2079 33.9539C21.8676 33.6773 21.61 33.4957 21.3851 33.2801C20.8537 32.8175 20.3564 32.317 19.8974 31.7822C18.3324 29.7665 18.1803 27.6354 19.4413 25.389C20.4866 23.5253 22.053 22.2955 23.9561 21.4398C24.7722 21.073 25.4109 21.2274 25.843 21.8329C25.9549 21.9853 26.0349 22.1586 26.0783 22.3426C26.1218 22.5265 26.1277 22.7173 26.096 22.9037C26.0643 23.0899 25.9954 23.268 25.8935 23.4271C25.7916 23.5863 25.6587 23.7233 25.5027 23.8301C24.8688 24.2992 24.1786 24.6872 23.4484 24.9849C22.9429 25.1741 22.4902 25.4816 22.1284 25.8819C21.7665 26.2823 21.5062 26.7636 21.3691 27.2855C21.2569 27.6429 21.2183 28.0192 21.256 28.3916C21.2936 28.7642 21.4065 29.1252 21.5879 29.4527C22.4909 31.1219 24.043 31.9249 25.7638 32.3454C26.3696 32.4935 27.1112 32.0863 27.9219 31.903C28.0271 28.0041 28.131 24.1637 28.2391 20.1585C27.7741 20.1649 27.3098 20.1969 26.8482 20.2543C23.4936 20.8661 20.1411 21.4787 16.7941 22.1261C13.7567 22.7127 10.7191 23.1492 7.63578 22.4922C5.99493 22.1426 4.41916 21.6292 3.11159 20.5231C2.3794 19.9033 1.81373 19.1553 2.18517 18.1409C2.35215 17.6348 2.66643 17.19 3.08761 16.8635C3.91999 16.3184 4.80688 15.8617 5.73404 15.5007C8.93722 14.2445 11.8905 12.5907 14.4609 10.2831C15.0176 9.78328 15.6069 9.31925 16.1891 8.84888C17.4342 7.84199 18.8343 7.54932 20.4044 7.86899C22.7624 8.34858 24.6601 9.68747 26.5431 11.0612C27.066 11.4421 27.5534 11.876 28.1786 12.3845ZM30.2077 17.7174C32.3332 18.0405 34.3039 18.3008 36.2606 18.646C39.5333 19.2258 42.7926 19.8206 46.1474 19.7059C48.6485 19.6299 51.0867 18.9015 53.2193 17.5927C53.5141 17.3795 53.7944 17.1464 54.0581 16.8953C53.0444 16.6838 52.1922 16.5535 51.3674 16.3258C47.88 15.3629 44.7593 13.6719 41.8748 11.5109C39.7226 9.8985 38.1924 9.85547 35.9356 11.3033C35.5838 11.5243 35.2444 11.7641 34.9187 12.0219C33.626 13.0645 32.3682 14.1523 31.0436 15.1521C30.5222 15.5454 30.258 15.9543 30.282 16.5958C30.2772 16.971 30.2526 17.3456 30.2077 17.7181V17.7174ZM28.3806 16.2691C27.4168 15.551 26.6608 15.0515 25.9774 14.4668C24.3836 13.0695 22.588 11.9208 20.6512 11.0597C19.2833 10.4683 18.0411 10.5512 16.8767 11.6595C13.6453 14.7348 9.87096 16.9481 5.69178 18.4888C5.27553 18.6792 4.87098 18.8942 4.48027 19.1327C5.29996 19.4912 5.8513 19.7747 6.43033 19.9784C9.01263 20.8875 11.6489 20.8535 14.2927 20.3279C17.5501 19.6813 20.7939 18.9788 24.0503 18.3346C25.4646 18.0546 26.8944 17.8592 28.3806 17.6151V16.2691ZM27.8069 35.7435C25.9595 35.7465 23.0446 37.1276 22.0497 38.4269C20.9514 39.8609 20.9375 41.6354 22.3041 42.635C23.4807 43.4958 24.8891 44.0735 26.2557 44.6284C26.9911 44.9261 27.5123 44.4606 27.558 43.6487C27.662 41.7895 27.736 39.9295 27.8011 38.068C27.8295 37.2928 27.8069 36.5168 27.8069 35.7435ZM30.4199 43.5543C31.3492 43.2058 32.2149 42.9324 33.0365 42.5621C34.3696 41.9609 35.5967 41.1821 36.5404 40.0372C37.1998 39.2369 37.1967 38.7698 36.4453 38.1143C34.7505 36.6354 32.7054 36.1361 30.4199 35.9976V43.5543ZM27.1657 48.3187C25.6342 48.1195 23.9095 49.2669 23.647 50.4887C23.5825 50.7528 23.5962 51.0302 23.6863 51.2865C23.7763 51.5432 23.9389 51.768 24.1543 51.9343C24.9659 52.6221 25.797 53.2869 26.7573 54.0735C26.9004 52.0558 27.0305 50.2232 27.1657 48.3198V48.3187ZM31.2894 5.1658C31.3008 3.57089 30.7262 3.05754 28.9937 2.94353C28.2112 2.89199 27.674 3.29088 27.4727 4.67188C27.3106 5.78276 28.2211 6.59225 29.6335 6.68173C30.9304 6.7651 31.2814 6.44473 31.2894 5.1668V5.1658ZM29.8941 49.4032C29.8095 50.2335 29.693 51.0502 29.651 51.8706C29.6092 52.7046 29.6417 53.5421 29.6417 54.5013C30.6661 53.915 31.1195 53.1198 31.4579 52.2161C32.0316 50.688 31.6334 49.9243 29.8941 49.4043V49.4032Z" fill="#008BD0"/>
</g>
</svg>
