<svg width="50" height="50" viewBox="0 0 50 50" fill="none" xmlns="http://www.w3.org/2000/svg">
<g clip-path="url(#clip0_1_188)">
<path d="M49.1667 0H0.833333C0.333333 0 0 0.333333 0 0.833333V39.1667C0 39.6667 0.333333 40 0.833333 40H19.1667V48.3333H16.6667V50H20H30H33.3333V48.3333H30.8333V40H49.1667C49.6667 40 50 39.6667 50 39.1667V0.833333C50 0.333333 49.6667 0 49.1667 0ZM48.3333 1.66667V30H46.6667V4.16667C46.6667 3.66667 46.3333 3.33333 45.8333 3.33333H4.16667C3.66667 3.33333 3.33333 3.66667 3.33333 4.16667V30H1.66667V1.66667H48.3333ZM45 30H5V5H45V30ZM29.1667 48.3333H20.8333V40H29.1667V48.3333ZM30 38.3333H20H1.66667V31.6667H4.16667H45.8333H48.3333V38.3333H30Z" fill="#008BD0"/>
<path d="M18.3333 20.8333H21.6667V24.1667C21.6667 24.6667 22 25 22.5 25H27.5C28 25 28.3333 24.6667 28.3333 24.1667V20.8333H31.6667C32.1667 20.8333 32.5 20.5 32.5 20V15C32.5 14.5 32.1667 14.1667 31.6667 14.1667H28.3333V10.8333C28.3333 10.3333 28 10 27.5 10H22.5C22 10 21.6667 10.3333 21.6667 10.8333V14.1667H18.3333C17.8333 14.1667 17.5 14.5 17.5 15V20C17.5 20.5 17.8333 20.8333 18.3333 20.8333ZM19.1667 15.8333H22.5C23 15.8333 23.3333 15.5 23.3333 15V11.6667H26.6667V15C26.6667 15.5 27 15.8333 27.5 15.8333H30.8333V19.1667H27.5C27 19.1667 26.6667 19.5 26.6667 20V23.3333H23.3333V20C23.3333 19.5 23 19.1667 22.5 19.1667H19.1667V15.8333Z" fill="#008BD0"/>
<path d="M9.16667 6.66675H7.5V8.33341H9.16667V6.66675Z" fill="#008BD0"/>
<path d="M12.5 6.66675H10.8333V8.33341H12.5V6.66675Z" fill="#008BD0"/>
<path d="M9.16667 10H7.5V11.6667H9.16667V10Z" fill="#008BD0"/>
<path d="M12.5 10H10.8333V11.6667H12.5V10Z" fill="#008BD0"/>
<path d="M15.8333 10H14.1667V11.6667H15.8333V10Z" fill="#008BD0"/>
<path d="M15.8333 23.3333H14.1667V24.9999H15.8333V23.3333Z" fill="#008BD0"/>
<path d="M35.8333 23.3333H34.1667V24.9999H35.8333V23.3333Z" fill="#008BD0"/>
<path d="M9.16667 13.3333H7.5V14.9999H9.16667V13.3333Z" fill="#008BD0"/>
<path d="M12.5 13.3333H10.8333V14.9999H12.5V13.3333Z" fill="#008BD0"/>
<path d="M9.16667 16.6667H7.5V18.3334H9.16667V16.6667Z" fill="#008BD0"/>
<path d="M12.5 16.6667H10.8333V18.3334H12.5V16.6667Z" fill="#008BD0"/>
<path d="M9.16667 20H7.5V21.6667H9.16667V20Z" fill="#008BD0"/>
<path d="M12.5 20H10.8333V21.6667H12.5V20Z" fill="#008BD0"/>
<path d="M9.16667 23.3333H7.5V24.9999H9.16667V23.3333Z" fill="#008BD0"/>
<path d="M12.5 23.3333H10.8333V24.9999H12.5V23.3333Z" fill="#008BD0"/>
<path d="M39.1667 10H37.5V11.6667H39.1667V10Z" fill="#008BD0"/>
<path d="M35.8333 10H34.1667V11.6667H35.8333V10Z" fill="#008BD0"/>
<path d="M42.5 10H40.8333V11.6667H42.5V10Z" fill="#008BD0"/>
<path d="M39.1667 13.3333H37.5V14.9999H39.1667V13.3333Z" fill="#008BD0"/>
<path d="M42.5 13.3333H40.8333V14.9999H42.5V13.3333Z" fill="#008BD0"/>
<path d="M39.1667 16.6667H37.5V18.3334H39.1667V16.6667Z" fill="#008BD0"/>
<path d="M42.5 16.6667H40.8333V18.3334H42.5V16.6667Z" fill="#008BD0"/>
<path d="M39.1667 20H37.5V21.6667H39.1667V20Z" fill="#008BD0"/>
<path d="M42.5 20H40.8333V21.6667H42.5V20Z" fill="#008BD0"/>
<path d="M39.1667 23.3333H37.5V24.9999H39.1667V23.3333Z" fill="#008BD0"/>
<path d="M42.5 23.3333H40.8333V24.9999H42.5V23.3333Z" fill="#008BD0"/>
<path d="M15.8333 6.66675H14.1667V8.33341H15.8333V6.66675Z" fill="#008BD0"/>
<path d="M19.1667 6.66675H17.5V8.33341H19.1667V6.66675Z" fill="#008BD0"/>
<path d="M22.5 6.66675H20.8333V8.33341H22.5V6.66675Z" fill="#008BD0"/>
<path d="M25.8333 6.66675H24.1667V8.33341H25.8333V6.66675Z" fill="#008BD0"/>
<path d="M29.1667 6.66675H27.5V8.33341H29.1667V6.66675Z" fill="#008BD0"/>
<path d="M32.5 6.66675H30.8333V8.33341H32.5V6.66675Z" fill="#008BD0"/>
<path d="M35.8333 6.66675H34.1667V8.33341H35.8333V6.66675Z" fill="#008BD0"/>
<path d="M39.1667 6.66675H37.5V8.33341H39.1667V6.66675Z" fill="#008BD0"/>
<path d="M42.5 6.66675H40.8333V8.33341H42.5V6.66675Z" fill="#008BD0"/>
<path d="M9.16667 26.6667H7.5V28.3334H9.16667V26.6667Z" fill="#008BD0"/>
<path d="M12.5 26.6667H10.8333V28.3334H12.5V26.6667Z" fill="#008BD0"/>
<path d="M15.8333 26.6667H14.1667V28.3334H15.8333V26.6667Z" fill="#008BD0"/>
<path d="M19.1667 26.6667H17.5V28.3334H19.1667V26.6667Z" fill="#008BD0"/>
<path d="M22.5 26.6667H20.8333V28.3334H22.5V26.6667Z" fill="#008BD0"/>
<path d="M25.8333 26.6667H24.1667V28.3334H25.8333V26.6667Z" fill="#008BD0"/>
<path d="M29.1667 26.6667H27.5V28.3334H29.1667V26.6667Z" fill="#008BD0"/>
<path d="M32.5 26.6667H30.8333V28.3334H32.5V26.6667Z" fill="#008BD0"/>
<path d="M35.8333 26.6667H34.1667V28.3334H35.8333V26.6667Z" fill="#008BD0"/>
<path d="M39.1667 26.6667H37.5V28.3334H39.1667V26.6667Z" fill="#008BD0"/>
<path d="M42.5 26.6667H40.8333V28.3334H42.5V26.6667Z" fill="#008BD0"/>
</g>
<defs>
<clipPath id="clip0_1_188">
<rect width="50" height="50" fill="white"/>
</clipPath>
</defs>
</svg>
