<svg width="90" height="90" viewBox="0 0 90 90" fill="none" xmlns="http://www.w3.org/2000/svg">
<g clip-path="url(#clip0_1_322)">
<path d="M65.3946 13.0018C63.919 13.5158 62.4102 13.9293 60.8786 14.2393C59.5607 18.7554 50.85 22.0661 49.9179 26.55C52.5222 24.0186 55.6489 22.0878 59.0786 20.8929C62.5821 20.0089 69.1071 18.3857 69.1071 16.0714C69.1071 14.7054 69.1071 13.4196 65.3946 13.0018ZM23.8821 84.6804C23.6324 84.0099 22.9904 83.5669 22.275 83.5714H3.45536C2.73994 83.5669 2.09793 84.0099 1.84821 84.6804L0 90H25.7143L23.8821 84.6804ZM15.7339 69.1071C12.5749 72.1126 10.4721 76.0588 9.73929 80.3571H16.1679C16.9798 77.6453 18.4998 75.1988 20.5714 73.2696C18.5332 72.4714 16.8272 71.0035 15.7339 69.1071ZM17.9518 62.5179C17.1956 65.1468 18.1859 67.9663 20.4199 69.545C22.654 71.1236 25.6423 71.1156 27.8679 69.525L17.9518 62.5179ZM90 31.0179C89.4319 28.825 87.4437 27.3007 85.1786 27.3214C79.7946 27.3214 74.4268 38.5714 62.6786 38.5714C54.6429 38.5714 46.6071 35.2286 46.6071 27.3214C46.6071 20.2982 56.5714 17.0196 57.7607 13.3875C56.9716 12.4874 56.2415 11.5372 55.575 10.5429C55.1992 10.0708 55.1194 9.42802 55.3685 8.87842C55.6175 8.32883 56.1534 7.96505 56.7562 7.93647C57.3589 7.90788 57.9268 8.2193 58.2268 8.74286C58.7832 9.56677 59.3897 10.3558 60.0429 11.1054C63.5625 10.4143 66.6 9.17679 67.3232 8.34107C66.7266 7.41797 66.2461 6.42475 65.8929 5.38393C65.6523 4.83849 65.7333 4.20468 66.1035 3.73737C66.4737 3.27007 67.0721 3.04606 67.6581 3.15543C68.2442 3.26479 68.7215 3.68957 68.8982 4.25893C69.1855 5.08878 69.5799 5.87759 70.0714 6.60536C72.9173 7.33286 75.8211 7.81145 78.75 8.03571C80.9679 8.03571 85.1786 7.02321 85.1786 3.21429C85.1786 2.10536 81.8196 0 69.1071 0C60.1554 0 55.575 2.925 55.5268 2.94107L35.3571 16.7786C28.0446 21.825 27.7554 26.7911 20.6679 40.8857C18.4279 45.1405 15.8425 49.2041 12.9375 53.0357C12.6816 53.3837 12.5766 53.8201 12.6462 54.2464C12.7157 54.6727 12.9539 55.0531 13.3071 55.3018L35.5339 71.0036C36.2084 71.4511 37.1105 71.3271 37.6393 70.7143C41.961 66.3625 46.8734 62.6403 52.2321 59.6571C64.5107 52.6661 64.2857 54 67.1946 51.4286L89.4696 32.6411C89.943 32.2464 90.1491 31.6159 90 31.0179ZM35.7268 25.1196C34.6372 26.471 33.7544 27.9767 33.1071 29.5875C32.7113 30.3387 31.7993 30.6523 31.0252 30.3035C30.251 29.9547 29.8817 29.0639 30.1821 28.2696C30.9319 26.3964 31.9674 24.6507 33.2518 23.0946C33.5901 22.5834 34.1898 22.3091 34.7979 22.3876C35.4059 22.4661 35.9163 22.8837 36.1137 23.4642C36.311 24.0446 36.1609 24.6868 35.7268 25.1196ZM40.1786 20.8929C39.4774 20.8912 38.8582 20.4352 38.6487 19.766C38.4391 19.0969 38.6875 18.3692 39.2625 17.9679L45.6911 13.5482C46.4233 13.0423 47.4271 13.2258 47.933 13.958C48.439 14.6903 48.2555 15.6941 47.5232 16.2C40.5804 21.0375 40.8857 20.8929 40.1786 20.8929Z" fill="white"/>
</g>
<defs>
<clipPath id="clip0_1_322">
<rect width="90" height="90" fill="white"/>
</clipPath>
</defs>
</svg>
