<svg width="60" height="60" viewBox="0 0 60 60" fill="none" xmlns="http://www.w3.org/2000/svg">
<path d="M7.20703 0.164165C6.75 0.363384 6.38672 0.77354 6.15234 1.3126C6 1.69932 5.97656 2.82432 5.97656 10.0431C5.97656 17.8712 5.98828 18.3634 6.19922 18.8204C6.45703 19.3946 6.90234 19.7579 7.54688 19.9337C8.19141 20.1095 14.9531 19.9806 16.7578 19.7579C19.6172 19.4064 22.0195 18.8907 22.4766 18.5509C22.9453 18.1993 23.2031 17.7892 23.3672 17.1564L23.5195 16.5821H24.5273H25.5352L25.957 17.0743C26.1797 17.3439 26.5547 17.6251 26.7656 17.6954C27.2109 17.836 27.5391 18.4454 27.5391 19.1485C27.5391 19.5353 27.5273 19.5353 26.9414 19.6056C26.168 19.6993 25.5586 20.0157 25.2188 20.5079C24.8906 20.9884 24.3398 22.6993 24.0703 24.0821C23.7539 25.6524 23.7773 28.9337 24.1172 31.1603C24.4336 33.1642 25.1367 35.9532 25.7109 37.5001C26.3906 39.3282 27.5273 42.2228 27.6797 42.5274C27.9375 43.0079 28.6523 43.3946 29.3203 43.4181L29.9297 43.4415L30.082 44.0157C30.1641 44.3321 30.3047 44.9649 30.3867 45.4337L30.5508 46.2657L30.1055 46.4649C29.2148 46.8751 28.8281 47.5899 28.8281 48.8556C28.8281 49.6056 28.7813 49.7579 28.1836 50.9298C27.8203 51.6212 27.4219 52.5587 27.2813 53.004C26.7305 54.8439 27.2695 56.7189 28.793 58.2306C30.5742 59.9767 32.8945 60.4454 35.25 59.5314C36.8438 58.922 37.5469 58.8868 39.3164 59.3439C41.1914 59.8243 42.1875 59.9181 46.2539 59.9649C50.0977 60.0235 50.3086 60.0118 51.0938 59.7774C52.1719 59.4493 53.1328 58.5821 53.625 57.5157C53.9063 56.8829 53.9531 56.6251 53.9531 55.7814C53.9648 54.9376 53.9063 54.6798 53.6367 54.0821C53.2617 53.2735 52.5352 52.4767 51.8555 52.1251C51.5977 51.9845 50.707 51.6681 49.8633 51.422C47.9883 50.8478 46.9805 50.4142 44.6484 49.1603C41.8359 47.6368 40.3945 46.7345 40.2305 46.4064C40.1602 46.2423 40.0313 45.879 39.9609 45.586C39.7852 44.9532 39.1875 44.3321 38.6133 44.2267L38.2031 44.1564V43.0548V41.9532L38.5195 41.8829C39.1641 41.7423 39.2695 41.6954 39.6094 41.4024C40.3828 40.7579 40.3242 41.1681 40.7227 31.8751C41.0625 23.7423 41.0742 22.336 40.8516 21.7501C40.6172 21.1525 40.1602 20.7071 39.5508 20.5079C39.082 20.3556 39.0703 20.2853 39.293 19.1017L39.4336 18.34L40.0781 18.3282C40.7461 18.3165 41.2852 18.1173 41.6133 17.7423C41.7188 17.6134 42.1055 16.9337 42.4688 16.2306C43.3242 14.5665 43.5117 13.6993 43.4531 11.7189C43.4063 10.4415 43.3477 10.1017 43.0078 9.08213C42.1172 6.45713 40.5938 4.96885 37.5586 3.7501C35.4961 2.91807 35.1328 2.91807 34.0313 3.76182L33.4219 4.23057L31.957 3.73838L30.4922 3.2462L30.4453 2.61338C30.3516 1.5001 29.7305 0.96104 28.1953 0.656353C25.3711 0.093853 25.0898 0.0821342 16.1133 0.0352592C9.05859 0.0118217 7.5 0.0235405 7.20703 0.164165ZM25.3711 2.21495C25.8281 2.28526 26.6953 2.42588 27.3281 2.53135L28.4531 2.73057L27.6211 3.73838C24.7852 7.13682 22.8984 10.84 21.7969 15.1759L21.3398 16.9337L19.7813 17.2501C17.1094 17.7892 15.1523 17.9532 11.4258 17.9767L8.02734 17.9884L7.99219 9.98448L7.96875 1.96885L16.2539 2.02745C21.1992 2.0626 24.8789 2.13292 25.3711 2.21495ZM30.2813 5.28526C31.8398 5.75401 31.7813 5.61338 30.7852 6.71495C28.9688 8.70713 27.3047 11.215 26.2969 13.465L25.7813 14.59L24.9961 14.5431C24.5508 14.5314 24.1758 14.4845 24.1406 14.4493C24.0352 14.3439 24.9258 11.9767 25.6172 10.547C26.7539 8.21495 28.8516 5.03917 29.2617 5.03917C29.3672 5.03917 29.8242 5.14463 30.2813 5.28526ZM37.0313 5.69542C38.543 6.32823 39.1992 6.7501 39.8555 7.47667C40.418 8.10948 41.0508 9.36338 41.3086 10.3712C41.5313 11.2384 41.5313 12.8439 41.3086 13.7814C41.1328 14.5314 40.2539 16.2892 40.0547 16.2892C39.9844 16.2892 39.6328 16.2071 39.2695 16.1134C38.3438 15.879 36.1875 15.6095 34.3945 15.5275C33 15.4454 29.0508 15.6095 27.9844 15.7853C27.4102 15.8673 27.4102 15.8087 28.043 14.4142C29.1328 12.0001 30.7852 9.58604 32.6484 7.66417C33.7852 6.50401 35.3672 5.15635 35.6016 5.15635C35.6836 5.15635 36.3281 5.40245 37.0313 5.69542ZM36.4336 17.6954C36.9727 17.754 37.4297 17.8243 37.4531 17.8478C37.5 17.8829 37.1719 19.8282 37.1016 19.8868C37.0781 19.9103 36.5977 19.8517 36.0234 19.7462C34.4883 19.4884 32.6016 19.336 30.9727 19.336H29.5313V18.8907C29.5313 18.6564 29.4844 18.2814 29.4258 18.0704C29.3672 17.8712 29.3203 17.6837 29.332 17.6837C29.3438 17.672 29.9063 17.6251 30.5859 17.5782C31.9688 17.4728 34.9453 17.5314 36.4336 17.6954ZM33.5273 21.4454C35.0742 21.5978 36.5625 21.8439 37.9453 22.172L39.0234 22.4298V23.1915C39.0117 24.879 38.4492 38.8946 38.3672 39.4571L38.3086 39.8204L37.0547 39.8907C34.2891 40.0548 32.625 40.336 30.7266 40.9689C30.0586 41.1915 29.4727 41.3673 29.4141 41.3673C29.3555 41.3673 29.25 41.1681 29.168 40.922C29.0977 40.6876 28.6758 39.586 28.2422 38.4962C26.9414 35.2501 26.4375 33.3282 26.0156 29.9415C25.7344 27.7384 25.7461 26.1329 26.0742 24.3868C26.2969 23.215 26.6953 21.9025 26.8711 21.715C27.1875 21.3868 31.3008 21.2228 33.5273 21.4454ZM36.1992 42.8556C36.1758 44.461 36.2344 44.3907 34.7461 44.7657C34.043 44.9532 33.2344 45.1759 32.9648 45.2814C32.4727 45.4571 32.4609 45.4571 32.4023 45.1993C32.3789 45.0587 32.2383 44.4493 32.0977 43.8399C31.8984 42.961 31.875 42.7267 32.0039 42.6564C32.25 42.4923 35.0039 42.0118 35.8359 41.9649L36.2109 41.9532L36.1992 42.8556ZM38.2734 47.004C38.5781 47.9532 39.5508 48.6564 43.4414 50.7892C46.1016 52.2423 47.7188 52.922 50.1797 53.6017C50.8945 53.8009 51.4805 54.2228 51.7383 54.7149C52.3477 55.9103 51.8086 57.3634 50.5664 57.8321C50.1211 58.0079 49.6172 58.0314 46.2656 57.9728C42.3164 57.9142 41.4258 57.8321 39.4336 57.2931C37.793 56.8478 36.2695 56.9532 34.6406 57.6329C34.0898 57.8673 33.7148 57.9376 32.9883 57.9376C32.1563 57.9493 31.957 57.9024 31.2656 57.5626C29.8477 56.8712 28.957 55.4649 29.1094 54.1642C29.2031 53.3907 29.5313 52.5235 30.0469 51.6915C30.5977 50.7774 30.8203 50.0509 30.8203 49.1134V48.3165L31.6172 47.9532C33.3164 47.1681 34.4648 46.8048 36.7383 46.3478C37.8867 46.1251 38.0273 46.1134 38.0625 46.2774C38.0859 46.3829 38.1797 46.711 38.2734 47.004Z" fill="#008BD0"/>
<path d="M28.7461 23.4375C28.3477 23.6016 28.1602 24 28.0078 25.0195C27.5156 28.2422 28.2188 32.9883 29.7774 36.9727C30.2813 38.25 30.6328 38.6719 31.1836 38.6719C31.6289 38.6719 32.1094 38.2031 32.1094 37.7812C32.1094 37.6055 31.8633 36.832 31.5703 36.0586C30.375 32.9062 29.8125 29.7187 29.9297 26.7891C29.9649 25.8164 30.0352 24.8086 30.0703 24.5391C30.1289 24.1406 30.0938 24.0117 29.8594 23.7539C29.5547 23.4023 29.1211 23.2852 28.7461 23.4375Z" fill="#008BD0"/>
</svg>
