<svg width="95" height="25" viewBox="0 0 95 25" fill="none" xmlns="http://www.w3.org/2000/svg">
<path opacity="0.1" d="M94.3347 16.665C94.5229 16.335 94.5158 15.9475 94.3178 15.6225L85.6043 1.4012C85.2619 0.842898 84.4618 0.630546 83.8169 0.926943C83.1721 1.22334 82.9268 1.91607 83.2692 2.47437L89.6952 12.9634C80.8074 8.43349 46.1982 -5.49374 1.07696 22.5029C0.483154 22.8709 0.346961 23.5854 0.772034 24.0995C0.857262 24.2025 0.9586 24.2901 1.06991 24.3599C1.51836 24.6413 2.14135 24.6577 2.61624 24.3635C48.929 -4.37376 83.5961 12.2923 89.4673 15.5328L74.5915 17.6891C73.8706 17.7936 73.3849 18.3835 73.5064 19.0068C73.5661 19.3156 73.7625 19.5745 74.0343 19.7451C74.3104 19.9184 74.6652 19.9997 75.0275 19.9472L93.3669 17.2887C93.7872 17.2274 94.1466 16.995 94.3347 16.665Z" fill="#5A5A5A"/>
</svg>
