<svg width="633" height="349" viewBox="0 0 633 349" fill="none" xmlns="http://www.w3.org/2000/svg">
<g id="&#208;&#161;&#208;&#187;&#208;&#190;&#209;&#130;&#209;&#139; &#209;&#129;&#208;&#187;&#208;&#181;&#208;&#178;&#208;&#176;">
<path id="Polygon 19" d="M506.988 84.2288L480.729 128.568C477.219 134.496 470.84 138.131 463.951 138.131L410.542 138.131C403.653 138.131 397.275 134.496 393.764 128.568L367.505 84.2288C363.876 78.1013 363.876 70.4828 367.505 64.3553L393.764 20.0165C397.275 14.0886 403.653 10.4532 410.542 10.4533L463.951 10.4533C470.84 10.4533 477.219 14.0886 480.729 20.0165L506.988 64.3553C510.617 70.4828 510.617 78.1013 506.988 84.2288Z" fill="#008BD0" fill-opacity="0.35" stroke="#008BD0"/>
<path id="Polygon 38" d="M265.959 84.2288L239.699 128.568C236.189 134.496 229.811 138.131 222.921 138.131L169.512 138.131C162.623 138.131 156.245 134.496 152.734 128.568L126.475 84.2288C122.846 78.1013 122.846 70.4828 126.475 64.3553L152.734 20.0165C156.245 14.0886 162.623 10.4532 169.512 10.4533L222.921 10.4533C229.811 10.4533 236.189 14.0886 239.699 20.0165L265.959 64.3553C269.588 70.4828 269.588 78.1013 265.959 84.2288Z" fill="#008BD0" fill-opacity="0.35" stroke="#008BD0"/>
<path id="Polygon 20" d="M506.988 218.004L480.729 262.343C477.219 268.271 470.84 271.906 463.951 271.906L410.542 271.906C403.653 271.906 397.275 268.271 393.764 262.343L367.505 218.004C363.876 211.876 363.876 204.258 367.505 198.13L393.764 153.792C397.275 147.864 403.653 144.228 410.542 144.228L463.951 144.228C470.84 144.228 477.219 147.864 480.729 153.792L506.988 198.13C510.617 204.258 510.617 211.876 506.988 218.004Z" fill="#008BD0" fill-opacity="0.35" stroke="#008BD0"/>
<path id="Polygon 39" d="M265.959 218.004L239.699 262.343C236.189 268.271 229.811 271.906 222.921 271.906L169.512 271.906C162.623 271.906 156.245 268.271 152.734 262.343L126.475 218.004C122.846 211.876 122.846 204.258 126.475 198.13L152.734 153.792C156.245 147.864 162.623 144.228 169.512 144.228L222.921 144.228C229.811 144.228 236.189 147.864 239.699 153.792L265.959 198.13C269.588 204.258 269.588 211.876 265.959 218.004Z" fill="#008BD0" fill-opacity="0.35" stroke="#008BD0"/>
<path id="Polygon 29" d="M386.98 150.87L360.72 195.208C357.21 201.136 350.832 204.772 343.942 204.772L290.533 204.772C283.644 204.772 277.266 201.136 273.755 195.208L247.496 150.87C243.867 144.742 243.867 137.124 247.496 130.996L273.755 86.6573C277.266 80.7295 283.644 77.0941 290.533 77.0941L343.942 77.0941C350.832 77.0941 357.21 80.7295 360.72 86.6573L386.98 130.996C390.609 137.124 390.609 144.742 386.98 150.87Z" fill="#008BD0" fill-opacity="0.35" stroke="#008BD0"/>
<path id="Polygon 49" d="M625.984 150.87L599.725 195.209C596.214 201.136 589.836 204.772 582.947 204.772L529.538 204.772C522.648 204.772 516.27 201.136 512.759 195.209L486.5 150.87C482.871 144.742 482.871 137.124 486.5 130.996L512.759 86.6574C516.27 80.7295 522.648 77.0941 529.538 77.0941L582.947 77.0941C589.836 77.0941 596.214 80.7295 599.725 86.6574L625.984 130.996C629.613 137.124 629.613 144.742 625.984 150.87Z" fill="#008BD0" fill-opacity="0.35" stroke="#008BD0"/>
<path id="Polygon 47" d="M145.95 150.869L119.691 195.208C116.18 201.136 109.802 204.772 102.912 204.772L49.5035 204.772C42.6141 204.772 36.236 201.136 32.7253 195.208L6.46607 150.869C2.83714 144.742 2.83714 137.123 6.46607 130.996L32.7253 86.6571C36.236 80.7293 42.6141 77.0939 49.5036 77.0939L102.912 77.0939C109.802 77.0939 116.18 80.7293 119.691 86.6571L145.95 130.996C149.579 137.123 149.579 144.742 145.95 150.869Z" fill="#008BD0" fill-opacity="0.35" stroke="#008BD0"/>
<path id="Polygon 48" d="M145.95 284.645L119.691 328.984C116.18 334.911 109.802 338.547 102.912 338.547L49.5035 338.547C42.6141 338.547 36.236 334.911 32.7253 328.984L6.46607 284.645C2.83713 278.517 2.83713 270.899 6.46607 264.771L32.7253 220.432C36.236 214.505 42.6141 210.869 49.5035 210.869L102.912 210.869C109.802 210.869 116.18 214.505 119.691 220.432L145.95 264.771C149.579 270.899 149.579 278.517 145.95 284.645Z" fill="#008BD0" fill-opacity="0.35" stroke="#008BD0"/>
</g>
</svg>
