<svg width="80" height="80" viewBox="0 0 80 80" fill="none" xmlns="http://www.w3.org/2000/svg">
<circle cx="40" cy="40" r="40" fill="white"/>
<path d="M17 56.5479V31.6106C17 30.9493 17.2634 30.315 17.7322 29.8473C18.2011 29.3796 18.837 29.1169 19.5 29.1169H39.5C40.163 29.1169 40.7989 29.3796 41.2678 29.8473C41.7366 30.315 42 30.9493 42 31.6106V56.5479C42 57.2093 41.7366 57.8436 41.2678 58.3112C40.7989 58.7789 40.163 59.0416 39.5 59.0416H19.5C18.837 59.0416 18.2011 58.7789 17.7322 58.3112C17.2634 57.8436 17 57.2093 17 56.5479ZM59.5 9.16711H34.5C33.837 9.16711 33.2011 9.42985 32.7322 9.89751C32.2634 10.3652 32 10.9995 32 11.6608V14.1546H55.75C56.0815 14.1546 56.3995 14.2859 56.6339 14.5198C56.8683 14.7536 57 15.0707 57 15.4014V41.5855H59.5C60.163 41.5855 60.7989 41.3228 61.2678 40.8551C61.7366 40.3875 62 39.7532 62 39.0918V11.6608C62 10.9995 61.7366 10.3652 61.2678 9.89751C60.7989 9.42985 60.163 9.16711 59.5 9.16711ZM49.5 51.5604C50.163 51.5604 50.7989 51.2977 51.2678 50.8301C51.7366 50.3624 52 49.7281 52 49.0667V21.6357C52 20.9744 51.7366 20.3401 51.2678 19.8724C50.7989 19.4047 50.163 19.142 49.5 19.142H24.5C23.837 19.142 23.2011 19.4047 22.7322 19.8724C22.2634 20.3401 22 20.9744 22 21.6357V24.1295H45.75C46.0815 24.1295 46.3995 24.2608 46.6339 24.4947C46.8683 24.7285 47 25.0456 47 25.3763V51.5604H49.5Z" fill="#008BD0"/>
</svg>
