<svg width="40" height="40" viewBox="0 0 40 40" fill="none" xmlns="http://www.w3.org/2000/svg">
<g clip-path="url(#clip0_1_359)">
<path d="M0 40L3.44 29.6807C1.69448 26.7448 0.689655 23.3186 0.689655 19.6552C0.689655 8.8 9.48966 0 20.3448 0C31.2 0 40 8.8 40 19.6552C40 30.5103 31.2 39.3103 20.3448 39.3103C17.0421 39.3103 13.9317 38.4917 11.2 37.0531L0 40Z" fill="#008BD0"/>
<path d="M32.8848 26.1968C31.9772 24.4816 28.6304 22.5202 28.6304 22.5202C27.8731 22.0885 26.9593 22.0402 26.5276 22.8099C26.5276 22.8099 25.44 24.114 25.1635 24.3016C23.9 25.1575 22.7297 25.1244 21.5483 23.943L18.8028 21.1975L16.0572 18.452C14.8759 17.2706 14.8428 16.1002 15.6986 14.8368C15.8862 14.5602 17.1904 13.4726 17.1904 13.4726C17.96 13.0402 17.9117 12.1271 17.48 11.3699C17.48 11.3699 15.5186 8.02299 13.8035 7.1154C13.0738 6.72919 12.1779 6.86436 11.5945 7.44781L10.3821 8.66023C6.53587 12.5064 8.42966 16.8485 12.2759 20.6947L15.791 24.2099L19.3062 27.7251C23.1524 31.5713 27.4945 33.4651 31.3407 29.6188L32.5531 28.4064C33.1366 27.8216 33.271 26.9257 32.8848 26.1968Z" fill="white"/>
</g>
<defs>
<clipPath id="clip0_1_359">
<rect width="40" height="40" fill="white"/>
</clipPath>
</defs>
</svg>
