<svg width="100" height="50" viewBox="0 0 100 50" fill="none" xmlns="http://www.w3.org/2000/svg">
<rect width="100" height="50" rx="25" transform="matrix(-1 0 0 1 100 0)" fill="#008BD0"/>
<path d="M66.7071 24.2929C67.0976 24.6834 67.0976 25.3166 66.7071 25.7071L60.3431 32.0711C59.9526 32.4616 59.3195 32.4616 58.9289 32.0711C58.5384 31.6805 58.5384 31.0474 58.9289 30.6569L64.5858 25L58.9289 19.3431C58.5384 18.9526 58.5384 18.3195 58.9289 17.9289C59.3195 17.5384 59.9526 17.5384 60.3431 17.9289L66.7071 24.2929ZM33 24L66 24L66 26L33 26L33 24Z" fill="white"/>
</svg>
