<svg width="170" height="240" viewBox="0 0 170 240" fill="none" xmlns="http://www.w3.org/2000/svg">
<rect width="170" height="240" fill="#008BD0" fill-opacity="0.5"/>
<path fill-rule="evenodd" clip-rule="evenodd" d="M110.429 119.714C110.429 133.916 98.9162 145.429 84.7145 145.429C70.5128 145.429 59 133.916 59 119.714C59 105.513 70.5128 94 84.7145 94C98.9162 94 110.429 105.513 110.429 119.714ZM84.7134 129.486C83.6848 129.486 82.6562 128.715 82.6562 127.429V121.773H77.0005C75.9719 121.773 74.9434 121.001 74.9434 119.715C74.9434 118.43 75.7148 117.658 77.0005 117.658H82.6562V112.001C82.6562 110.972 83.4277 109.943 84.7134 109.943C85.9991 109.943 86.7706 110.715 86.7706 112.001V117.658H92.4292C93.4578 117.658 94.4863 118.43 94.4863 119.715C94.4863 121.001 93.4578 121.773 92.4292 121.773H86.7706V127.429C86.7706 128.458 85.742 129.486 84.7134 129.486Z" fill="white"/>
</svg>
